<?xml version="1.0" standalone="no"?><!DOCTYPE svg PUBLIC "-//W3C//DTD SVG 1.1//EN" "http://www.w3.org/Graphics/SVG/1.1/DTD/svg11.dtd"><svg t="1778249403118" class="icon" viewBox="0 0 1472 1024" version="1.1" xmlns="http://www.w3.org/2000/svg" p-id="7566" width="23" height="16" xmlns:xlink="http://www.w3.org/1999/xlink"><path d="M889.6 473.6l262.4-150.4V124.8C1152 73.6 1110.4 32 1059.2 32H92.8C41.6 32 0 73.6 0 124.8v774.4C0 950.4 41.6 992 92.8 992h966.4c51.2 0 92.8-41.6 92.8-92.8v-176l-262.4-150.4c-38.4-25.6-38.4-80 0-99.2zM1472 236.8c0-44.8-48-70.4-83.2-48L1152 323.2v400l233.6 134.4c38.4 22.4 86.4-6.4 86.4-48V236.8z" fill="#7F8393" p-id="7567"></path><path d="M889.6 473.6c-38.4 22.4-38.4 76.8 0 99.2l262.4 150.4V323.2l-262.4 150.4z" fill="#7F8393" p-id="7568"></path><path d="M89.6 96h960v832h-960z" fill="#F0F2F8" p-id="7569"></path><path d="M348.8 592v-60.8h160v147.2c-16 16-38.4 28.8-67.2 38.4s-57.6 16-89.6 16c-38.4 0-70.4-9.6-99.2-25.6S201.6 672 188.8 640c-12.8-28.8-22.4-64-22.4-99.2 0-38.4 9.6-73.6 25.6-102.4 16-28.8 38.4-51.2 70.4-67.2 22.4-12.8 51.2-19.2 86.4-19.2 44.8 0 80 9.6 105.6 28.8 25.6 19.2 41.6 44.8 48 80l-73.6 12.8c-6.4-19.2-16-32-28.8-41.6s-32-16-54.4-16c-32 0-57.6 9.6-76.8 32-19.2 19.2-28.8 51.2-28.8 92.8 0 44.8 9.6 76.8 28.8 99.2 19.2 22.4 44.8 32 76.8 32 16 0 32-3.2 48-9.6 16-6.4 28.8-12.8 41.6-22.4v-48h-86.4zM576 729.6V361.6h73.6v368H576zM720 729.6V361.6h252.8v60.8h-176v86.4h153.6v60.8h-153.6v156.8h-76.8z" fill="#717788" p-id="7570"></path></svg>